<?xml version="1.0" encoding="utf-8"?>
<!-- Generator: Adobe Illustrator 18.1.1, SVG Export Plug-In . SVG Version: 6.00 Build 0)  -->
<svg version="1.1" xmlns="http://www.w3.org/2000/svg" xmlns:xlink="http://www.w3.org/1999/xlink" x="0px" y="0px"
	 viewBox="0 0 296.5 314.5" enable-background="new 0 0 296.5 314.5" xml:space="preserve">
<g id="Dots__x26__Label" display="none">
	<g display="inline">
		<g id="Ellipse_1_copy" opacity="0.15">
			<g>
				<circle fill="#242421" cx="-843.9" cy="315.7" r="2.5"/>
			</g>
		</g>
		<g id="Ellipse_1_copy_3_1_" opacity="0.15">
			<g>
				<circle fill="#242421" cx="-743.9" cy="315.7" r="2.5"/>
			</g>
		</g>
		<g id="Ellipse_1_copy_4_1_" opacity="0.15">
			<g>
				<circle fill="#242421" cx="-643.9" cy="315.7" r="2.5"/>
			</g>
		</g>
		<g id="Ellipse_1_copy_4_3_" opacity="0.15">
			<g>
				<circle fill="#242421" cx="-543.9" cy="315.7" r="2.5"/>
			</g>
		</g>
		<g id="Ellipse_1_copy_5" opacity="0.15">
			<g>
				<circle fill="#242421" cx="-843.9" cy="15.7" r="2.5"/>
			</g>
		</g>
		<g id="Ellipse_1_copy_5_1_" opacity="0.15">
			<g>
				<circle fill="#242421" cx="-743.9" cy="15.7" r="2.5"/>
			</g>
		</g>
		<g id="Ellipse_1_copy_5_2_" opacity="0.15">
			<g>
				<circle fill="#242421" cx="-643.9" cy="15.7" r="2.5"/>
			</g>
		</g>
		<g id="Ellipse_1_copy_5_3_" opacity="0.15">
			<g>
				<circle fill="#242421" cx="-543.9" cy="15.7" r="2.5"/>
			</g>
		</g>
		<g id="Ellipse_1_copy_6" opacity="0.15">
			<g>
				<circle fill="#242421" cx="-843.9" cy="115.7" r="2.5"/>
			</g>
		</g>
		<g id="Ellipse_1_copy_6_1_" opacity="0.15">
			<g>
				<circle fill="#242421" cx="-743.9" cy="115.7" r="2.5"/>
			</g>
		</g>
		<g id="Ellipse_1_copy_6_2_" opacity="0.15">
			<g>
				<circle fill="#242421" cx="-643.9" cy="115.7" r="2.5"/>
			</g>
		</g>
		<g id="Ellipse_1_copy_6_3_" opacity="0.15">
			<g>
				<circle fill="#242421" cx="-543.9" cy="115.7" r="2.5"/>
			</g>
		</g>
		<g id="Ellipse_1_copy_6_5_" opacity="0.15">
			<g>
				<circle fill="#242421" cx="-843.9" cy="215.7" r="2.5"/>
			</g>
		</g>
		<g id="Ellipse_1_copy_6_6_" opacity="0.15">
			<g>
				<circle fill="#242421" cx="-743.9" cy="215.7" r="2.5"/>
			</g>
		</g>
		<g id="Ellipse_1_copy_6_7_" opacity="0.15">
			<g>
				<circle fill="#242421" cx="-643.9" cy="215.7" r="2.5"/>
			</g>
		</g>
		<g id="Ellipse_1_copy_6_8_" opacity="0.15">
			<g>
				<circle fill="#242421" cx="-543.9" cy="215.7" r="2.5"/>
			</g>
		</g>
	</g>
	<text transform="matrix(1 0 0 1 -845.9136 393.5186)" display="inline" opacity="0.15"><tspan x="0" y="0" font-family="'Helvetica-Light'" font-size="12">LOGOTYPE 001</tspan><tspan x="0" y="28.8" font-family="'Helvetica-Light'" font-size="12">REPRESENTS A FOLDED LETTER</tspan><tspan x="0" y="43.2" font-family="'Helvetica-Light'" font-size="12">AS WELL AS A ‘W’ FOR WESTFIELD</tspan></text>
</g>
<g id="Text" display="none">
	
		<text transform="matrix(1 0 0 1 -817.9573 356.8968)" display="inline" font-family="'Moon-Bold'" font-size="13" letter-spacing="2">BICENTENNIAL TIME CAPSULE</text>
</g>
<g id="v1" display="none">
	<g display="inline">
		
			<polygon fill="none" stroke="#000000" stroke-width="3" stroke-linecap="round" stroke-linejoin="round" stroke-miterlimit="10" points="
			-744.4,316.3 -644.3,216.2 -744.4,216.4 		"/>
		
			<polygon fill="none" stroke="#000000" stroke-width="3" stroke-linecap="round" stroke-linejoin="round" stroke-miterlimit="10" points="
			-744.4,316.3 -844.2,216.6 -744.4,116.1 -644.3,216.2 -744.4,216.4 		"/>
		
			<polygon fill="#FFFFFF" stroke="#000000" stroke-width="2.5" stroke-linecap="round" stroke-linejoin="round" stroke-miterlimit="10" points="
			-744.6,216.2 -644.4,316.1 -644.4,116 		"/>
		
			<polygon fill="none" stroke="#000000" stroke-width="2.5" stroke-linecap="round" stroke-linejoin="round" stroke-miterlimit="10" points="
			-644.3,316.3 -644.4,116 -544.4,15.7 -544.4,216.6 		"/>
	</g>
	<g id="Text_copy_2" display="inline">
		<text transform="matrix(1 0 0 1 -817.9573 356.8968)" font-family="'Moon-Bold'" font-size="13" letter-spacing="2">BICENTENNIAL TIME CAPSULE</text>
	</g>
</g>
<g id="v2" display="none">
	<g display="inline">
		
			<polygon fill="none" stroke="#000000" stroke-width="3" stroke-linecap="round" stroke-linejoin="round" stroke-miterlimit="10" points="
			-744.4,315.9 -644.3,216.2 -744.4,216.2 		"/>
		
			<polygon fill="none" stroke="#000000" stroke-width="3" stroke-linecap="round" stroke-linejoin="round" stroke-miterlimit="10" points="
			-744.4,316.1 -844.2,216.5 -744.4,115.9 -644.3,216.2 -744.4,216.2 		"/>
		
			<polygon fill="#FFFFFF" stroke="#000000" stroke-width="2.5" stroke-linecap="round" stroke-linejoin="round" stroke-miterlimit="10" points="
			-744.6,216.6 -644.4,316.1 -544.4,216.6 -644.4,116.1 		"/>
		
			<polygon fill="#FFFFFF" stroke="#000000" stroke-width="2.5" stroke-linecap="round" stroke-linejoin="round" stroke-miterlimit="10" points="
			-644.3,316.3 -644.4,216.6 -544.4,116.1 -544.4,216.6 		"/>
	</g>
</g>
<g id="v3" display="none">
	<g display="inline">
		
			<polygon fill="none" stroke="#000000" stroke-width="3" stroke-linecap="round" stroke-linejoin="round" stroke-miterlimit="10" points="
			-744.4,316.3 -644.3,216.2 -744.4,216.4 		"/>
		
			<polygon fill="none" stroke="#000000" stroke-width="3" stroke-linecap="round" stroke-linejoin="round" stroke-miterlimit="10" points="
			-744.4,316.3 -844.2,216.6 -744.4,116.1 -644.3,216.2 -744.4,216.4 		"/>
		
			<polygon fill="#FFFFFF" stroke="#000000" stroke-width="2.5" stroke-linecap="round" stroke-linejoin="round" stroke-miterlimit="10" points="
			-744.6,216.2 -644.4,316.1 -644.4,116 		"/>
		
			<polygon fill="none" stroke="#000000" stroke-width="2.5" stroke-linecap="round" stroke-linejoin="round" stroke-miterlimit="10" points="
			-644.3,316.3 -644.4,96 -544.4,-4.3 -544.4,216.6 		"/>
	</g>
	<g id="Text_copy_3" display="inline">
		<text transform="matrix(1 0 0 1 -817.9573 356.8968)" font-family="'Moon-Bold'" font-size="13" letter-spacing="2">BICENTENNIAL TIME CAPSULE</text>
	</g>
</g>
<g id="V4" display="none">
	<g display="inline">
		<g>
			
				<line fill="none" stroke="#999999" stroke-width="3" stroke-linecap="round" stroke-linejoin="round" stroke-miterlimit="10" x1="-821.6" y1="224" x2="-736.9" y2="138.7"/>
			
				<line fill="none" stroke="#999999" stroke-width="3" stroke-linecap="round" stroke-linejoin="round" stroke-miterlimit="10" x1="-812.6" y1="233" x2="-727.9" y2="147.7"/>
			
				<line fill="none" stroke="#999999" stroke-width="3" stroke-linecap="round" stroke-linejoin="round" stroke-miterlimit="10" x1="-804.6" y1="241" x2="-719.9" y2="155.7"/>
			
				<line fill="none" stroke="#999999" stroke-width="3" stroke-linecap="round" stroke-linejoin="round" stroke-miterlimit="10" x1="-795.6" y1="250" x2="-710.9" y2="164.7"/>
			
				<line fill="none" stroke="#999999" stroke-width="3" stroke-linecap="round" stroke-linejoin="round" stroke-miterlimit="10" x1="-787.6" y1="258.5" x2="-702.9" y2="173.2"/>
			
				<line fill="none" stroke="#999999" stroke-width="3" stroke-linecap="round" stroke-linejoin="round" stroke-miterlimit="10" x1="-778.6" y1="267" x2="-693.9" y2="181.7"/>
			
				<line fill="none" stroke="#999999" stroke-width="3" stroke-linecap="round" stroke-linejoin="round" stroke-miterlimit="10" x1="-770.6" y1="276" x2="-685.9" y2="190.7"/>
			
				<line fill="none" stroke="#999999" stroke-width="3" stroke-linecap="round" stroke-linejoin="round" stroke-miterlimit="10" x1="-762.6" y1="284" x2="-677.9" y2="198.7"/>
			
				<line fill="none" stroke="#999999" stroke-width="3" stroke-linecap="round" stroke-linejoin="round" stroke-miterlimit="10" x1="-753.6" y1="293" x2="-668.9" y2="207.7"/>
		</g>
		
			<polygon fill="#FFFFFF" stroke="#000000" stroke-width="3" stroke-linecap="round" stroke-linejoin="round" stroke-miterlimit="10" points="
			-744.4,316.3 -644.3,216.2 -744.4,216.4 		"/>
		
			<polygon fill="none" stroke="#000000" stroke-width="3" stroke-linecap="round" stroke-linejoin="round" stroke-miterlimit="10" points="
			-744.4,316.3 -844.2,216.6 -744.4,116.1 -644.3,216.2 -744.4,216.4 		"/>
		
			<polygon fill="#FFFFFF" stroke="#000000" stroke-width="2.5" stroke-linecap="round" stroke-linejoin="round" stroke-miterlimit="10" points="
			-744.6,216.2 -644.4,316.1 -644.4,116 		"/>
		<g>
			
				<line fill="none" stroke="#999999" stroke-width="3" stroke-linecap="round" stroke-linejoin="round" stroke-miterlimit="10" x1="-717.6" y1="224" x2="-632.9" y2="138.7"/>
			
				<line fill="none" stroke="#999999" stroke-width="3" stroke-linecap="round" stroke-linejoin="round" stroke-miterlimit="10" x1="-708.6" y1="233" x2="-623.9" y2="147.7"/>
			
				<line fill="none" stroke="#999999" stroke-width="3" stroke-linecap="round" stroke-linejoin="round" stroke-miterlimit="10" x1="-700.6" y1="241" x2="-615.9" y2="155.7"/>
			
				<line fill="none" stroke="#999999" stroke-width="3" stroke-linecap="round" stroke-linejoin="round" stroke-miterlimit="10" x1="-691.6" y1="250" x2="-606.9" y2="164.7"/>
			
				<line fill="none" stroke="#999999" stroke-width="3" stroke-linecap="round" stroke-linejoin="round" stroke-miterlimit="10" x1="-683.6" y1="258.5" x2="-598.9" y2="173.2"/>
			
				<line fill="none" stroke="#999999" stroke-width="3" stroke-linecap="round" stroke-linejoin="round" stroke-miterlimit="10" x1="-674.6" y1="267" x2="-589.9" y2="181.7"/>
			
				<line fill="none" stroke="#999999" stroke-width="3" stroke-linecap="round" stroke-linejoin="round" stroke-miterlimit="10" x1="-666.6" y1="276" x2="-581.9" y2="190.7"/>
			
				<line fill="none" stroke="#999999" stroke-width="3" stroke-linecap="round" stroke-linejoin="round" stroke-miterlimit="10" x1="-658.6" y1="284" x2="-573.9" y2="198.7"/>
			
				<line fill="none" stroke="#999999" stroke-width="3" stroke-linecap="round" stroke-linejoin="round" stroke-miterlimit="10" x1="-649.6" y1="293" x2="-564.9" y2="207.7"/>
		</g>
		
			<polygon fill="#FFFFFF" stroke="#000000" stroke-width="2.5" stroke-linecap="round" stroke-linejoin="round" stroke-miterlimit="10" points="
			-644.3,316.3 -644.4,96 -544.4,-4.3 -544.4,216.6 		"/>
	</g>
	<g id="Text_copy_5" display="inline">
		<text transform="matrix(1 0 0 1 -817.9573 356.8968)" font-family="'Moon-Bold'" font-size="13" letter-spacing="2">BICENTENNIAL TIME CAPSULE</text>
	</g>
</g>
<g id="V4_copy" display="none">
	<g display="inline">
		<g>
			
				<line fill="none" stroke="#999999" stroke-width="3" stroke-linecap="round" stroke-linejoin="round" stroke-miterlimit="10" x1="-821.6" y1="224" x2="-736.9" y2="138.7"/>
			
				<line fill="none" stroke="#999999" stroke-width="3" stroke-linecap="round" stroke-linejoin="round" stroke-miterlimit="10" x1="-812.6" y1="233" x2="-727.9" y2="147.7"/>
			
				<line fill="none" stroke="#999999" stroke-width="3" stroke-linecap="round" stroke-linejoin="round" stroke-miterlimit="10" x1="-804.6" y1="241" x2="-719.9" y2="155.7"/>
			
				<line fill="none" stroke="#999999" stroke-width="3" stroke-linecap="round" stroke-linejoin="round" stroke-miterlimit="10" x1="-795.6" y1="250" x2="-710.9" y2="164.7"/>
			
				<line fill="none" stroke="#999999" stroke-width="3" stroke-linecap="round" stroke-linejoin="round" stroke-miterlimit="10" x1="-787.6" y1="258.5" x2="-702.9" y2="173.2"/>
			
				<line fill="none" stroke="#999999" stroke-width="3" stroke-linecap="round" stroke-linejoin="round" stroke-miterlimit="10" x1="-778.6" y1="267" x2="-693.9" y2="181.7"/>
			
				<line fill="none" stroke="#999999" stroke-width="3" stroke-linecap="round" stroke-linejoin="round" stroke-miterlimit="10" x1="-770.6" y1="276" x2="-685.9" y2="190.7"/>
			
				<line fill="none" stroke="#999999" stroke-width="3" stroke-linecap="round" stroke-linejoin="round" stroke-miterlimit="10" x1="-762.6" y1="284" x2="-677.9" y2="198.7"/>
			
				<line fill="none" stroke="#999999" stroke-width="3" stroke-linecap="round" stroke-linejoin="round" stroke-miterlimit="10" x1="-753.6" y1="293" x2="-668.9" y2="207.7"/>
		</g>
		
			<polygon display="none" fill="#FFFFFF" stroke="#000000" stroke-width="3" stroke-linecap="round" stroke-linejoin="round" stroke-miterlimit="10" points="
			-744.4,316.3 -644.3,216.2 -744.4,216.4 		"/>
		
			<polygon display="none" fill="none" stroke="#000000" stroke-width="3" stroke-linecap="round" stroke-linejoin="round" stroke-miterlimit="10" points="
			-744.4,316.3 -844.2,216.6 -744.4,116.1 -644.3,216.2 -744.4,216.4 		"/>
		
			<polygon display="none" fill="#FFFFFF" stroke="#000000" stroke-width="2.5" stroke-linecap="round" stroke-linejoin="round" stroke-miterlimit="10" points="
			-744.6,216.2 -644.4,316.1 -644.4,116 		"/>
		<g>
			
				<line fill="none" stroke="#999999" stroke-width="3" stroke-linecap="round" stroke-linejoin="round" stroke-miterlimit="10" x1="-717.6" y1="224" x2="-632.9" y2="138.7"/>
			
				<line fill="none" stroke="#999999" stroke-width="3" stroke-linecap="round" stroke-linejoin="round" stroke-miterlimit="10" x1="-708.6" y1="233" x2="-623.9" y2="147.7"/>
			
				<line fill="none" stroke="#999999" stroke-width="3" stroke-linecap="round" stroke-linejoin="round" stroke-miterlimit="10" x1="-700.6" y1="241" x2="-615.9" y2="155.7"/>
			
				<line fill="none" stroke="#999999" stroke-width="3" stroke-linecap="round" stroke-linejoin="round" stroke-miterlimit="10" x1="-691.6" y1="250" x2="-606.9" y2="164.7"/>
			
				<line fill="none" stroke="#999999" stroke-width="3" stroke-linecap="round" stroke-linejoin="round" stroke-miterlimit="10" x1="-683.6" y1="258.5" x2="-598.9" y2="173.2"/>
			
				<line fill="none" stroke="#999999" stroke-width="3" stroke-linecap="round" stroke-linejoin="round" stroke-miterlimit="10" x1="-674.6" y1="267" x2="-589.9" y2="181.7"/>
			
				<line fill="none" stroke="#999999" stroke-width="3" stroke-linecap="round" stroke-linejoin="round" stroke-miterlimit="10" x1="-666.6" y1="276" x2="-581.9" y2="190.7"/>
			
				<line fill="none" stroke="#999999" stroke-width="3" stroke-linecap="round" stroke-linejoin="round" stroke-miterlimit="10" x1="-658.6" y1="284" x2="-573.9" y2="198.7"/>
			
				<line fill="none" stroke="#999999" stroke-width="3" stroke-linecap="round" stroke-linejoin="round" stroke-miterlimit="10" x1="-649.6" y1="293" x2="-564.9" y2="207.7"/>
		</g>
		
			<polygon display="none" fill="#FFFFFF" stroke="#000000" stroke-width="2.5" stroke-linecap="round" stroke-linejoin="round" stroke-miterlimit="10" points="
			-644.3,316.3 -644.4,96 -544.4,-4.3 -544.4,216.6 		"/>
	</g>
	<g id="Text_copy_7" display="inline">
		<text transform="matrix(1 0 0 1 -817.9573 356.8968)" font-family="'Moon-Bold'" font-size="13" letter-spacing="2">BICENTENNIAL TIME CAPSULE</text>
	</g>
</g>
<g id="v5" display="none">
	<g display="inline">
		
			<polygon fill="#22B573" stroke="#FFFFFF" stroke-width="3" stroke-linecap="round" stroke-linejoin="round" stroke-miterlimit="10" points="
			-744.4,316.3 -644.3,216.2 -744.4,216.4 		"/>
		
			<polygon fill="#22B573" stroke="#FFFFFF" stroke-width="3" stroke-linecap="round" stroke-linejoin="round" stroke-miterlimit="10" points="
			-744.4,316.3 -844.2,216.6 -744.4,116.1 -644.3,216.2 -744.4,216.4 		"/>
		
			<polygon fill="#22B573" stroke="#FFFFFF" stroke-width="2.5" stroke-linecap="round" stroke-linejoin="round" stroke-miterlimit="10" points="
			-744.6,216.2 -644.4,316.1 -644.4,116 		"/>
		
			<polygon fill="#22B573" stroke="#FFFFFF" stroke-width="2.5" stroke-linecap="round" stroke-linejoin="round" stroke-miterlimit="10" points="
			-644.3,316.3 -644.4,96 -544.4,-4.3 -544.4,216.6 		"/>
	</g>
	<g id="Text_copy" display="inline">
		<text transform="matrix(1 0 0 1 -817.9573 356.8968)" font-family="'Moon-Bold'" font-size="13" letter-spacing="2">BICENTENNIAL TIME CAPSULE</text>
	</g>
</g>
<g id="v5_copy">
	<g>
		
			<polygon fill="#22B573" stroke="#FFFFFF" stroke-width="3" stroke-linecap="round" stroke-linejoin="round" stroke-miterlimit="10" points="
			-744.4,316.3 -844.2,216.6 -744.4,116.1 -644.3,216.2 -744.4,216.4 		"/>
		<g>
			
				<line fill="none" stroke="#21A566" stroke-width="3" stroke-linecap="round" stroke-linejoin="round" stroke-miterlimit="10" x1="-821.6" y1="224" x2="-736.9" y2="138.7"/>
			
				<line fill="none" stroke="#21A566" stroke-width="3" stroke-linecap="round" stroke-linejoin="round" stroke-miterlimit="10" x1="-812.6" y1="233" x2="-727.9" y2="147.7"/>
			
				<line fill="none" stroke="#21A566" stroke-width="3" stroke-linecap="round" stroke-linejoin="round" stroke-miterlimit="10" x1="-804.6" y1="241" x2="-719.9" y2="155.7"/>
			
				<line fill="none" stroke="#21A566" stroke-width="3" stroke-linecap="round" stroke-linejoin="round" stroke-miterlimit="10" x1="-795.6" y1="250" x2="-710.9" y2="164.7"/>
			
				<line fill="none" stroke="#21A566" stroke-width="3" stroke-linecap="round" stroke-linejoin="round" stroke-miterlimit="10" x1="-787.6" y1="258.5" x2="-702.9" y2="173.2"/>
			
				<line fill="none" stroke="#21A566" stroke-width="3" stroke-linecap="round" stroke-linejoin="round" stroke-miterlimit="10" x1="-778.6" y1="267" x2="-693.9" y2="181.7"/>
			
				<line fill="none" stroke="#21A566" stroke-width="3" stroke-linecap="round" stroke-linejoin="round" stroke-miterlimit="10" x1="-770.6" y1="276" x2="-685.9" y2="190.7"/>
			
				<line fill="none" stroke="#21A566" stroke-width="3" stroke-linecap="round" stroke-linejoin="round" stroke-miterlimit="10" x1="-762.6" y1="284" x2="-677.9" y2="198.7"/>
			
				<line fill="none" stroke="#21A566" stroke-width="3" stroke-linecap="round" stroke-linejoin="round" stroke-miterlimit="10" x1="-753.6" y1="293" x2="-668.9" y2="207.7"/>
		</g>
		
			<polygon fill="#24A064" stroke="#FFFFFF" stroke-width="3" stroke-linecap="round" stroke-linejoin="round" stroke-miterlimit="10" points="
			-744.4,316.3 -644.3,216.2 -744.4,216.4 		"/>
		
			<polygon fill="#22B573" stroke="#FFFFFF" stroke-width="2.5" stroke-linecap="round" stroke-linejoin="round" stroke-miterlimit="10" points="
			-744.6,216.2 -644.4,316.1 -643.4,115 		"/>
		<g>
			
				<line fill="none" stroke="#21A566" stroke-width="3" stroke-linecap="round" stroke-linejoin="round" stroke-miterlimit="10" x1="-717.6" y1="224" x2="-632.9" y2="138.7"/>
			
				<line fill="none" stroke="#21A566" stroke-width="3" stroke-linecap="round" stroke-linejoin="round" stroke-miterlimit="10" x1="-708.6" y1="233" x2="-623.9" y2="147.7"/>
			
				<line fill="none" stroke="#21A566" stroke-width="3" stroke-linecap="round" stroke-linejoin="round" stroke-miterlimit="10" x1="-700.6" y1="241" x2="-615.9" y2="155.7"/>
			
				<line fill="none" stroke="#21A566" stroke-width="3" stroke-linecap="round" stroke-linejoin="round" stroke-miterlimit="10" x1="-691.6" y1="250" x2="-606.9" y2="164.7"/>
			
				<line fill="none" stroke="#21A566" stroke-width="3" stroke-linecap="round" stroke-linejoin="round" stroke-miterlimit="10" x1="-683.6" y1="258.5" x2="-598.9" y2="173.2"/>
			
				<line fill="none" stroke="#21A566" stroke-width="3" stroke-linecap="round" stroke-linejoin="round" stroke-miterlimit="10" x1="-674.6" y1="267" x2="-589.9" y2="181.7"/>
			
				<line fill="none" stroke="#21A566" stroke-width="3" stroke-linecap="round" stroke-linejoin="round" stroke-miterlimit="10" x1="-666.6" y1="276" x2="-581.9" y2="190.7"/>
			
				<line fill="none" stroke="#21A566" stroke-width="3" stroke-linecap="round" stroke-linejoin="round" stroke-miterlimit="10" x1="-658.6" y1="284" x2="-573.9" y2="198.7"/>
			
				<line fill="none" stroke="#21A566" stroke-width="3" stroke-linecap="round" stroke-linejoin="round" stroke-miterlimit="10" x1="-649.6" y1="293" x2="-564.9" y2="207.7"/>
		</g>
		
			<polygon fill="#24A064" stroke="#FFFFFF" stroke-width="2.5" stroke-linecap="round" stroke-linejoin="round" stroke-miterlimit="10" points="
			-644.3,316.3 -644.4,96 -544.4,-4.3 -544.4,216.6 		"/>
	</g>
	<g id="Text_copy_6" display="none">
		
			<text transform="matrix(1 0 0 1 -817.9573 356.8968)" display="inline" font-family="'Moon-Bold'" font-size="13" letter-spacing="2">BICENTENNIAL TIME CAPSULE</text>
	</g>
</g>
<g id="v5_copy_2">
	<polygon fill="#22B573" points="99.3,217.4 196.4,314.4 197.5,119.3 	"/>
	<g>
		<path fill="#22B573" d="M96.7,216.5l49.1-49.1l-48-48L0,217.9l96.2,96l0-96.3C96.2,217.2,96.4,216.8,96.7,216.5
			C96.7,216.5,96.7,216.5,96.7,216.5z"/>
	</g>
	<g>
		<g>
			<g>
				<path fill="#21A566" d="M20.5,226.8c-0.4,0-0.8-0.1-1.1-0.4c-0.6-0.6-0.6-1.5,0-2.1l84.7-85.3c0.6-0.6,1.5-0.6,2.1,0
					c0.6,0.6,0.6,1.5,0,2.1l-84.7,85.3C21.3,226.6,20.9,226.8,20.5,226.8z"/>
			</g>
			<g>
				<path fill="#21A566" d="M29.5,235.8c-0.4,0-0.8-0.1-1.1-0.4c-0.6-0.6-0.6-1.5,0-2.1l84.7-85.3c0.6-0.6,1.5-0.6,2.1,0
					c0.6,0.6,0.6,1.5,0,2.1l-84.7,85.3C30.3,235.6,29.9,235.8,29.5,235.8z"/>
			</g>
			<g>
				<path fill="#21A566" d="M37.5,243.8c-0.4,0-0.8-0.1-1.1-0.4c-0.6-0.6-0.6-1.5,0-2.1l84.7-85.3c0.6-0.6,1.5-0.6,2.1,0
					s0.6,1.5,0,2.1l-84.7,85.3C38.3,243.6,37.9,243.8,37.5,243.8z"/>
			</g>
			<g>
				<path fill="#21A566" d="M46.5,252.8c-0.4,0-0.8-0.1-1.1-0.4c-0.6-0.6-0.6-1.5,0-2.1l84.7-85.3c0.6-0.6,1.5-0.6,2.1,0
					s0.6,1.5,0,2.1l-84.7,85.3C47.3,252.6,46.9,252.8,46.5,252.8z"/>
			</g>
			<path fill="#21A566" d="M140.3,172.9c-0.6-0.6-1.5-0.6-2.1,0l-84.7,85.3c-0.6,0.6-0.6,1.5,0,2.1c0.3,0.3,0.7,0.4,1.1,0.4
				c0.4,0,0.7-0.1,1-0.4l40.6-41v-1.8c0-0.4,0.2-0.8,0.5-1.1c0,0,0,0,0,0L140.3,172.9C140.3,172.9,140.3,172.9,140.3,172.9z"/>
		</g>
		<g>
			<path fill="#21A566" d="M197.3,149.8l-73.9,74.4c-0.6,0.6-0.6,1.5,0,2.1c0.3,0.3,0.7,0.4,1.1,0.4c0.4,0,0.8-0.1,1.1-0.4
				l71.8-72.2L197.3,149.8z"/>
			<path fill="#21A566" d="M197.2,168l-64.8,65.3c-0.6,0.6-0.6,1.5,0,2.1c0.3,0.3,0.7,0.4,1.1,0.4c0.4,0,0.8-0.1,1.1-0.4l62.7-63.1
				L197.2,168z"/>
			<path fill="#21A566" d="M197.1,184.1l-56.7,57.1c-0.6,0.6-0.6,1.5,0,2.1c0.3,0.3,0.7,0.4,1.1,0.4c0.4,0,0.8-0.1,1.1-0.4
				l54.6-54.9L197.1,184.1z"/>
			<path fill="#21A566" d="M197,202.3l-47.6,48c-0.6,0.6-0.6,1.5,0,2.1c0.3,0.3,0.7,0.4,1.1,0.4c0.4,0,0.8-0.1,1.1-0.4l45.5-45.8
				L197,202.3z"/>
			<path fill="#21A566" d="M197,218.9l-39.5,39.8c-0.6,0.6-0.6,1.5,0,2.1c0.3,0.3,0.7,0.4,1.1,0.4c0.4,0,0.8-0.1,1.1-0.4l37.4-37.6
				L197,218.9z"/>
			<path fill="#21A566" d="M196.9,236.6l-30.4,30.6c-0.6,0.6-0.6,1.5,0,2.1c0.3,0.3,0.7,0.4,1.1,0.4c0.4,0,0.8-0.1,1.1-0.4
				l28.3-28.5L196.9,236.6z"/>
			<path fill="#21A566" d="M196.8,253.7l-22.3,22.5c-0.6,0.6-0.6,1.5,0,2.1c0.3,0.3,0.7,0.4,1.1,0.4c0.4,0,0.8-0.1,1.1-0.4
				l20.2-20.3L196.8,253.7z"/>
			<path fill="#21A566" d="M196.7,269.9l-14.3,14.4c-0.6,0.6-0.6,1.5,0,2.1c0.3,0.3,0.7,0.4,1.1,0.4c0.4,0,0.8-0.1,1.1-0.4
				l12.1-12.2L196.7,269.9z"/>
			<path fill="#21A566" d="M196.6,288l-5.2,5.2c-0.6,0.6-0.6,1.5,0,2.1c0.3,0.3,0.7,0.4,1.1,0.4c0.4,0,0.8-0.1,1.1-0.4l3-3
				L196.6,288z"/>
		</g>
		<g>
			<path fill="#21A566" d="M96.2,284.4l-8.8,8.9c-0.6,0.6-0.6,1.5,0,2.1c0.3,0.3,0.7,0.4,1.1,0.4c0.4,0,0.8-0.1,1.1-0.4l6.7-6.7
				L96.2,284.4z"/>
		</g>
		<g>
			<path fill="#21A566" d="M96.1,266.3l-17.7,17.9c-0.6,0.6-0.5,1.5,0,2.1c0.3,0.3,0.7,0.4,1.1,0.4c0.4,0,0.7-0.1,1-0.4l15.6-15.8
				V266.3z"/>
		</g>
		<g>
			<path fill="#21A566" d="M96.1,250.2l-25.7,26c-0.6,0.6-0.5,1.5,0,2.1c0.3,0.3,0.7,0.4,1.1,0.4c0.4,0,0.7-0.1,1-0.4l23.6-23.8
				V250.2z"/>
		</g>
		<g>
			<path fill="#21A566" d="M96.2,233.2l-33.8,34c-0.6,0.6-0.6,1.5,0,2.1c0.3,0.3,0.7,0.4,1.1,0.4c0.4,0,0.8-0.1,1.1-0.4l31.7-31.9
				L96.2,233.2z"/>
		</g>
		<path display="none" fill="#21A566" d="M97.1,216.1l42.9-42.9c-0.6-0.4-1.4-0.3-1.9,0.2l-84.7,85.3c-0.6,0.6-0.6,1.5,0,2.1
			c0.3,0.3,0.7,0.4,1.1,0.4c0.4,0,0.7-0.1,1-0.4l40.6-41v-2.3C96.1,217,96.5,216.4,97.1,216.1z"/>
	</g>
	<g id="Text_copy_8" display="none">
		
			<text transform="matrix(1 0 0 1 -817.9573 356.8968)" display="inline" font-family="'Moon-Bold'" font-size="13" letter-spacing="2">BICENTENNIAL TIME CAPSULE</text>
	</g>
	<path display="none" fill="#FFFFFF" d="M197.7,318.6c-0.3,0-0.6-0.1-0.9-0.4L96.7,218.3c-0.2-0.2-0.4-0.6-0.4-0.9
		c0-0.3,0.1-0.6,0.4-0.9l101.2-101.2c0.4-0.4,0.9-0.5,1.4-0.3c0.5,0.2,0.8,0.7,0.8,1.2l-1.1,201.1c0,0.5-0.3,1-0.8,1.1
		C198,318.6,197.8,318.6,197.7,318.6z M99.3,217.4l97.1,96.9l1.1-195L99.3,217.4z"/>
	<path display="none" fill="#FFFFFF" d="M197.7,318.6c-0.3,0-0.6-0.1-0.9-0.4L96.7,218.3c-0.2-0.2-0.4-0.6-0.4-0.9
		c0-0.3,0.1-0.6,0.4-0.9l101.2-101.2c0.4-0.4,0.9-0.5,1.4-0.3c0.5,0.2,0.8,0.7,0.8,1.2l-1.1,201.1c0,0.5-0.3,1-0.8,1.1
		C198,318.6,197.8,318.6,197.7,318.6z M99.3,217.4l97.1,96.9l1.1-195L99.3,217.4z"/>
	<g>
		<polygon fill="#24A064" points="99.2,220.9 99.2,313.9 145.8,267.4 		"/>
	</g>
	<polygon fill="#24A064" points="200.1,96.9 200.1,313.6 296.1,217.4 296.1,0 	"/>
</g>
<g id="v6" display="none">
	<g display="inline">
		
			<polygon fill="#998675" stroke="#FFFFFF" stroke-width="3" stroke-linecap="round" stroke-linejoin="round" stroke-miterlimit="10" points="
			-744.4,316.3 -644.3,216.2 -744.4,216.4 		"/>
		
			<polygon fill="#C7B299" stroke="#FFFFFF" stroke-width="3" stroke-linecap="round" stroke-linejoin="round" stroke-miterlimit="10" points="
			-744.4,316.3 -844.2,216.6 -744.4,116.1 -644.3,216.2 -744.4,216.4 		"/>
		
			<polygon fill="#C7B299" stroke="#FFFFFF" stroke-width="2.5" stroke-linecap="round" stroke-linejoin="round" stroke-miterlimit="10" points="
			-744.6,216.2 -644.4,316.1 -644.4,116 		"/>
		
			<polygon fill="#998675" stroke="#FFFFFF" stroke-width="2.5" stroke-linecap="round" stroke-linejoin="round" stroke-miterlimit="10" points="
			-644.3,316.3 -644.4,96 -544.4,-4.3 -544.4,216.6 		"/>
	</g>
	<g id="Text_copy_4" display="inline">
		<text transform="matrix(1 0 0 1 -817.9573 356.8968)" font-family="'Moon-Bold'" font-size="13" letter-spacing="2">BICENTENNIAL TIME CAPSULE</text>
	</g>
</g>
</svg>
