<?xml version="1.0" encoding="utf-8"?>
<!-- Generator: Adobe Illustrator 18.1.1, SVG Export Plug-In . SVG Version: 6.00 Build 0)  -->
<svg version="1.1" xmlns="http://www.w3.org/2000/svg" xmlns:xlink="http://www.w3.org/1999/xlink" x="0px" y="0px"
	 viewBox="0 0 296.2 316" enable-background="new 0 0 296.2 316" xml:space="preserve">
<g id="Dots__x26__Label" display="none">
</g>
<g id="Text" display="none">
</g>
<g id="v1" display="none">
	<g id="Text_copy_2" display="inline">
	</g>
</g>
<g id="v2" display="none">
</g>
<g id="v3" display="none">
	<g id="Text_copy_3" display="inline">
	</g>
</g>
<g id="V4" display="none">
	<g id="Text_copy_5" display="inline">
	</g>
</g>
<g id="V4_copy" display="none">
	<g id="Text_copy_7" display="inline">
	</g>
</g>
<g id="v5" display="none">
	<g id="Text_copy" display="inline">
	</g>
</g>
<g id="v5_copy" display="none">
	<g id="Text_copy_6">
	</g>
</g>
<g id="v5_copy_2">
	<g id="Text_copy_8" display="none">
	</g>
	<polygon fill="#22B573" points="196.5,120.3 99.3,217.4 196.4,314.4 196.5,286.9 	"/>
	<path fill="#22B573" d="M96.6,216.6l49.1-49.1l-48-48L0,217.9l96.2,96l0-96.3C96.2,217.2,96.3,216.8,96.6,216.6
		C96.6,216.6,96.6,216.6,96.6,216.6z"/>
	<g>
		<path fill="#21A566" d="M106.2,138.9c-0.6-0.6-1.5-0.6-2.1,0l-84.7,85.3c-0.6,0.6-0.6,1.5,0,2.1c0.3,0.3,0.7,0.4,1.1,0.4
			c0.4,0,0.8-0.1,1.1-0.4l84.7-85.3C106.8,140.4,106.8,139.5,106.2,138.9z"/>
		<path fill="#21A566" d="M115.2,147.9c-0.6-0.6-1.5-0.6-2.1,0l-84.7,85.3c-0.6,0.6-0.6,1.5,0,2.1c0.3,0.3,0.7,0.4,1.1,0.4
			c0.4,0,0.8-0.1,1.1-0.4l84.7-85.3C115.8,149.4,115.8,148.5,115.2,147.9z"/>
		<path fill="#21A566" d="M123.2,155.9c-0.6-0.6-1.5-0.6-2.1,0l-84.7,85.3c-0.6,0.6-0.6,1.5,0,2.1c0.3,0.3,0.7,0.4,1.1,0.4
			c0.4,0,0.8-0.1,1.1-0.4l84.7-85.3C123.8,157.4,123.8,156.5,123.2,155.9z"/>
		<path fill="#21A566" d="M132.2,164.9c-0.6-0.6-1.5-0.6-2.1,0l-84.7,85.3c-0.6,0.6-0.6,1.5,0,2.1c0.3,0.3,0.7,0.4,1.1,0.4
			c0.4,0,0.8-0.1,1.1-0.4l84.7-85.3C132.8,166.4,132.8,165.5,132.2,164.9z"/>
		<path fill="#21A566" d="M138.1,173.4l-84.7,85.3c-0.6,0.6-0.6,1.5,0,2.1c0.3,0.3,0.7,0.4,1.1,0.4c0.4,0,0.8-0.1,1.1-0.4l40.7-41
			v-2.3c0-0.4,0.2-0.8,0.4-1.1c0,0,0,0,0,0l43.3-43.3C139.4,172.9,138.6,172.9,138.1,173.4z"/>
		<path fill="#21A566" d="M96.2,233.2l-33.8,34c-0.6,0.6-0.6,1.5,0,2.1c0.3,0.3,0.7,0.4,1.1,0.4c0.4,0,0.8-0.1,1.1-0.4l31.7-31.9
			V233.2z"/>
		<path fill="#21A566" d="M96.2,250.2l-25.8,26c-0.6,0.6-0.6,1.5,0,2.1c0.3,0.3,0.7,0.4,1.1,0.4c0.4,0,0.8-0.1,1.1-0.4l23.7-23.8
			V250.2z"/>
		<path fill="#21A566" d="M96.2,266.3l-17.8,17.9c-0.6,0.6-0.6,1.5,0,2.1c0.3,0.3,0.7,0.4,1.1,0.4c0.4,0,0.8-0.1,1.1-0.4l15.7-15.8
			V266.3z"/>
		<path fill="#21A566" d="M96.2,284.4l-8.8,8.9c-0.6,0.6-0.6,1.5,0,2.1c0.3,0.3,0.7,0.4,1.1,0.4c0.4,0,0.8-0.1,1.1-0.4l6.7-6.7
			V284.4z"/>
	</g>
	<polygon fill="#24A064" points="296.2,217.4 296.2,0 198.8,97.8 198.9,314.5 	"/>
	<polygon fill="#24A064" points="99.2,220.9 99.2,316 146.8,268.4 	"/>
	<g>
		<path fill="#21A566" d="M196.5,150.6l-73.1,73.6c-0.6,0.6-0.6,1.5,0,2.1c0.3,0.3,0.7,0.4,1.1,0.4c0.4,0,0.8-0.1,1.1-0.4l71-71.5
			L196.5,150.6z"/>
		<path fill="#21A566" d="M196.5,168.7l-64.1,64.6c-0.6,0.6-0.6,1.5,0,2.1c0.3,0.3,0.7,0.4,1.1,0.4c0.4,0,0.8-0.1,1.1-0.4l62-62.4
			L196.5,168.7z"/>
		<path fill="#21A566" d="M196.5,184.7l-56.1,56.5c-0.6,0.6-0.6,1.5,0,2.1c0.3,0.3,0.7,0.4,1.1,0.4c0.4,0,0.8-0.1,1.1-0.4l54-54.4
			L196.5,184.7z"/>
		<path fill="#21A566" d="M196.5,202.8l-47.1,47.5c-0.6,0.6-0.6,1.5,0,2.1c0.3,0.3,0.7,0.4,1.1,0.4c0.4,0,0.8-0.1,1.1-0.4l45-45.3
			L196.5,202.8z"/>
		<path fill="#21A566" d="M196.5,219.3l-39.1,39.4c-0.6,0.6-0.6,1.5,0,2.1c0.3,0.3,0.7,0.4,1.1,0.4c0.4,0,0.8-0.1,1.1-0.4l37-37.3
			L196.5,219.3z"/>
		<path fill="#21A566" d="M196.5,236.9l-30.1,30.4c-0.6,0.6-0.6,1.5,0,2.1c0.3,0.3,0.7,0.4,1.1,0.4c0.4,0,0.8-0.1,1.1-0.4l28-28.2
			L196.5,236.9z"/>
		<path fill="#21A566" d="M196.5,253.9l-22.2,22.3c-0.6,0.6-0.6,1.5,0,2.1c0.3,0.3,0.7,0.4,1.1,0.4c0.4,0,0.8-0.1,1.1-0.4l20-20.2
			L196.5,253.9z"/>
		<path fill="#21A566" d="M196.5,270l-14.2,14.3c-0.6,0.6-0.6,1.5,0,2.1c0.3,0.3,0.7,0.4,1.1,0.4c0.4,0,0.8-0.1,1.1-0.4l12-12.1
			L196.5,270z"/>
	</g>
	<path fill="#21A566" d="M196.5,288l-5.2,5.2c-0.6,0.6-0.6,1.5,0,2.1c0.3,0.3,0.7,0.4,1.1,0.4c0.4,0,0.8-0.1,1.1-0.4l3-3L196.5,288z
		"/>
	<g display="none">
		<path display="inline" fill="#F7931E" d="M197.6,318.6c-0.3,0-0.6-0.1-0.9-0.4L96.6,218.3c-0.2-0.2-0.4-0.6-0.4-0.9
			c0-0.3,0.1-0.6,0.4-0.9l101.2-101.1c0.4-0.4,0.9-0.5,1.4-0.3c0.5,0.2,0.8,0.7,0.8,1.2l-1.1,201.1c0,0.5-0.3,1-0.8,1.1
			C197.9,318.6,197.8,318.6,197.6,318.6z M99.3,217.4l97.1,96.9l1.1-195L99.3,217.4z"/>
		<path display="inline" fill="#0000FF" d="M97.7,319c-0.4,0-0.8-0.2-1.1-0.4l-99.8-99.7c-0.6-0.6-0.6-1.5,0-2.1l99.8-100.5
			c0.3-0.3,0.7-0.4,1.1-0.4c0,0,0,0,0,0c0.4,0,0.8,0.1,1.1,0.4l100.1,100.1c0.4,0.4,0.6,1.1,0.3,1.6c-0.2,0.6-0.8,0.9-1.4,0.9
			l-98.6,0.1l0,98.4c0,0.6-0.4,1.2-0.9,1.4C98,319,97.9,319,97.7,319z M0,217.9l96.2,96l0-96.3c0-0.8,0.7-1.5,1.5-1.5l96.5-0.1
			l-96.5-96.5L0,217.9z"/>
		<path display="inline" fill="#00FFFF" d="M197.8,318.8c-0.2,0-0.3,0-0.5-0.1c-0.5-0.2-0.8-0.6-0.8-1.2l-0.1-220.3
			c0-0.3,0.1-0.6,0.4-0.9L296.8-3.9c0.4-0.4,0.9-0.5,1.4-0.3c0.5,0.2,0.8,0.6,0.8,1.2v220.9c0,0.3-0.1,0.7-0.4,0.9l-99.9,99.7
			C198.4,318.7,198.1,318.8,197.8,318.8z M199,97.8l0.1,216.7l97.4-97.2V0L199,97.8z"/>
	</g>
</g>
<g id="v6" display="none">
	<g id="Text_copy_4" display="inline">
	</g>
</g>
</svg>
